Land_normalized_Motion_pl17
version=1
nRows=12
nColumns=43
inDegrees=yes
endheader
time		pelvis_tilt		pelvis_list		pelvis_rotation		pelvis_tx		pelvis_ty		pelvis_tz		hip_flexion_r		hip_adduction_r		hip_rotation_r		knee_angle_r		ankle_angle_r		subtalar_angle_r		mtp_angle_r		hip_flexion_l		hip_adduction_l		hip_rotation_l		knee_angle_l		ankle_angle_l		subtalar_angle_l		mtp_angle_l		lumbar_extension		lumbar_bending		lumbar_rotation		neck_flexion		neck_lateral_bending		neck_rotation		arm_flex_r		arm_add_r		arm_rot_r		elbow_flex_r		pro_sup_r		wrist_flex_r		wrist_dev_r		hand_finger_flex_r		arm_flex_l		arm_add_l		arm_rot_l		elbow_flex_l		pro_sup_l		wrist_flex_l		wrist_dev_l		hand_finger_flex_l		
1.132500		0.235393		1.482803		85.860309		0.013791		1.035931		0.643301		34.928245		-1.468578		-7.063001		-35.880092		-26.649572		4.667951		19.303762		30.742605		-10.065536		-12.175139		-33.998178		-25.560139		13.233026		26.174272		-33.471621		-3.237305		-1.435800		-31.216719		-4.348747		6.210582		-62.575084		-12.917961		-33.738460		46.725400		120.615393		3.265158		1.747612		7.736515		-58.982172		-5.910780		-20.900804		60.919820		104.200376		-3.826829		-8.822978		15.758365		
1.135732		0.173559		1.656959		85.893401		0.013646		1.022006		0.638418		35.309855		-1.495912		-6.631157		-37.200531		-26.546785		4.507651		19.428393		31.033361		-9.956585		-11.751627		-35.086176		-25.269465		13.349625		26.224765		-33.729398		-3.328616		-1.559976		-30.770693		-4.342083		6.191457		-62.152396		-12.955388		-33.774084		47.089048		120.604691		2.699389		1.892351		7.551162		-58.576470		-5.748628		-21.555636		60.702816		103.919357		-4.192402		-8.834615		15.712734		
1.138965		0.197345		1.973997		85.933130		0.013515		1.008488		0.633086		35.476675		-1.505806		-6.427095		-38.443581		-26.792011		4.536728		19.433833		31.088147		-9.951003		-11.525270		-36.039650		-25.388825		13.419124		26.236775		-34.052572		-3.341552		-1.559621		-30.836154		-4.297797		6.189055		-61.662094		-13.075210		-33.714087		47.249395		120.599115		2.570469		1.923163		7.520659		-58.081210		-5.934575		-21.815435		60.382796		103.833704		-4.377355		-8.739356		15.662479		
1.142197		0.131124		2.156834		85.972143		0.013165		0.994455		0.628410		35.868806		-1.561069		-6.061906		-39.661579		-27.160504		4.494470		19.458006		31.412351		-9.786588		-11.029420		-37.051154		-25.659181		13.558711		26.274324		-34.372850		-3.409838		-1.689377		-30.239769		-4.299429		6.187428		-61.126800		-13.240447		-33.568259		47.612920		120.565490		2.210615		1.993865		7.486958		-57.510415		-5.916589		-22.255632		60.108333		103.492774		-4.908703		-8.623471		15.522109		
1.145429		0.134504		2.436913		86.005333		0.013018		0.980624		0.623285		36.108839		-1.569045		-5.867855		-40.849190		-27.411597		4.485107		19.532515		31.567335		-9.739668		-10.707107		-37.978099		-25.956390		13.613459		26.300424		-34.696845		-3.437300		-1.720633		-30.125004		-4.272673		6.205498		-60.527133		-13.401911		-33.420916		47.853466		120.542428		2.073260		1.992970		7.499939		-56.926595		-6.138502		-22.505283		59.810052		103.311438		-5.239604		-8.512247		15.423179		
1.148662		0.101633		2.625088		86.045860		0.012644		0.966554		0.618603		36.476753		-1.591334		-5.578813		-42.012368		-27.520822		4.406864		19.816656		31.923498		-9.595298		-10.195238		-38.947855		-26.392939		13.638482		26.363805		-35.035085		-3.462895		-1.810530		-29.606157		-4.248645		6.241626		-59.863232		-13.630796		-33.166185		48.183431		120.496449		1.881121		1.954879		7.562963		-56.231595		-6.287204		-22.767022		59.514585		102.960281		-5.825582		-8.391093		15.246497		
1.151894		0.052330		2.384488		86.303941		0.011903		0.951489		0.614010		37.371942		-1.762597		-5.457752		-43.363418		-27.267574		4.524692		24.244060		32.915451		-9.288822		-9.325332		-40.100576		-26.410217		13.424895		27.268616		-34.863302		-3.363004		-2.041015		-29.258399		-4.234196		6.384385		-59.157330		-14.027645		-32.407835		48.251367		119.844502		1.086765		1.868404		8.429659		-55.696205		-6.929675		-21.914481		59.242299		100.974619		-7.551165		-8.378788		15.080835		
1.155126		0.042550		2.550892		86.318140		0.011581		0.937229		0.609422		37.764603		-1.684046		-5.047471		-44.769301		-25.634823		4.330203		26.741634		33.410136		-9.181523		-8.862126		-41.487605		-25.221948		13.178862		27.827635		-35.197804		-3.373019		-2.116889		-28.649243		-4.169586		6.386303		-58.471451		-14.285086		-32.079774		48.753310		119.631752		0.824739		1.645590		8.875335		-54.875505		-7.139730		-22.053177		58.875669		100.218412		-8.384968		-8.321473		15.023223		
1.158359		-0.031251		2.614752		86.368292		0.011153		0.922593		0.604712		38.344152		-1.738139		-4.608130		-46.535247		-23.214688		4.926721		34.669005		34.029118		-9.015828		-8.427758		-43.243208		-22.053224		13.552776		30.121931		-35.359696		-3.433784		-2.264695		-28.282699		-4.069414		6.463157		-57.692837		-14.573548		-31.783013		49.119183		119.628782		0.401012		1.195511		10.041176		-54.192854		-7.406701		-22.114087		58.714868		99.663671		-9.370277		-8.418887		15.346701		
1.161591		-0.005371		2.701262		86.364335		0.010953		0.908127		0.600238		38.901834		-1.593866		-4.139866		-48.662277		-18.805064		5.665662		35.707619		34.629353		-8.912421		-7.908541		-45.300890		-17.471568		13.313078		30.554824		-35.615612		-3.439627		-2.285894		-27.689604		-4.081027		6.563127		-56.767769		-14.858961		-31.503307		49.438403		119.628845		0.467909		0.891340		10.127082		-53.373871		-7.614725		-22.456650		58.580766		99.483541		-9.775777		-8.405923		15.168766		
1.164823		-0.005301		2.636489		86.457398		0.010596		0.893418		0.595799		39.586998		-1.496205		-3.643884		-51.017527		-13.278824		7.005840		36.565136		35.394961		-8.788805		-7.462684		-47.642267		-11.597278		13.751401		30.996297		-35.712238		-3.406753		-2.320079		-27.081924		-3.960499		6.637372		-55.862906		-15.112775		-31.176467		49.785628		119.639306		0.519628		0.473089		10.221507		-52.410882		-7.894361		-22.743699		58.305158		99.219620		-10.242319		-8.366771		14.917702		
1.168056		0.051868		2.636790		86.492421		0.010454		0.878618		0.591420		40.233303		-1.302245		-3.326712		-53.665893		-6.954206		8.134888		35.834005		36.077069		-8.758586		-7.063793		-50.230353		-4.928320		14.246746		31.268161		-35.878266		-3.373334		-2.374417		-26.441075		-3.848829		6.680260		-54.922959		-15.391127		-30.912583		50.263791		119.676851		0.495036		0.009258		10.323338		-51.563126		-8.167528		-23.006283		58.239474		98.903864		-10.567853		-8.364519		14.696016		
